<svg width="22" height="22" viewBox="0 0 22 22" fill="none" xmlns="http://www.w3.org/2000/svg">
<g clip-path="url(#clip0_5986_51013)">
<path d="M17.0313 7.57346H15.1657C14.9483 7.57346 14.7415 7.48018 14.5976 7.31782L13.8408 6.4629C13.7282 6.3353 13.5658 6.2627 13.396 6.2627C13.2262 6.2627 13.0638 6.33574 12.9512 6.4629L12.3022 7.19638C12.0896 7.43618 11.7847 7.5739 11.4644 7.5739H1.25245C0.961609 8.40286 0.771969 9.27846 0.696289 10.1866H10.3367C10.5061 10.1866 10.6684 10.1175 10.7855 9.99522L11.6831 9.05846C11.7953 8.94142 11.9502 8.87542 12.1121 8.87542H12.149C12.3193 8.87542 12.4812 8.94846 12.5939 9.07606L13.3502 9.93098C13.4941 10.0938 13.7009 10.1866 13.9183 10.1866H21.7872C21.7116 9.27802 21.5219 8.40242 21.2311 7.5739H17.0308L17.0313 7.57346Z" fill="black"/>
<path d="M6.52914 15.6813C6.69854 15.6813 6.8609 15.6122 6.97794 15.4899L7.87554 14.5531C7.98774 14.4361 8.14262 14.3701 8.30454 14.3701H8.3415C8.51178 14.3701 8.6737 14.4431 8.78634 14.5703L9.5427 15.4252C9.68658 15.588 9.89338 15.6808 10.1107 15.6808H20.7746C21.1741 14.8554 21.4667 13.9697 21.6409 13.0417H11.4052C11.1879 13.0417 10.9811 12.9484 10.8372 12.7861L10.0808 11.9312C9.96818 11.8036 9.80582 11.731 9.63598 11.731C9.46614 11.731 9.30378 11.804 9.19114 11.9312L8.54214 12.6646C8.32962 12.9044 8.0247 13.0422 7.70394 13.0422H0.84082C1.01506 13.9701 1.3081 14.8558 1.70718 15.6813H6.52914Z" fill="black"/>
<path d="M14.0947 4.71849C14.2641 4.71849 14.4264 4.64941 14.5435 4.52709L15.4411 3.59033C15.5533 3.47329 15.7082 3.40729 15.8701 3.40729H15.907C16.0773 3.40729 16.2392 3.48033 16.3519 3.60793L17.1082 4.46285C17.2521 4.62565 17.4589 4.71849 17.6763 4.71849H19.7042C17.7731 2.15153 14.7014 0.490967 11.2413 0.490967C7.78112 0.490967 4.70948 2.15153 2.77832 4.71849H14.0947Z" fill="black"/>
<path d="M10.0216 18.2964H7.24831C7.03095 18.2964 6.82415 18.2031 6.68027 18.0407L5.92391 17.1858C5.81127 17.0582 5.64891 16.9856 5.47907 16.9856C5.30923 16.9856 5.14687 17.0586 5.03423 17.1858L4.38523 17.9193C4.17271 18.1591 3.86779 18.2968 3.54703 18.2968H3.50391C5.43595 20.367 8.18727 21.6628 11.2422 21.6628C14.2971 21.6628 17.048 20.367 18.9805 18.2968H10.0216V18.2964Z" fill="black"/>
</g>
<defs>
<clipPath id="clip0_5986_51013">
<rect width="22" height="22" fill="white"/>
</clipPath>
</defs>
</svg>
