<svg width="3051" height="1192" viewBox="0 0 3051 1192" fill="none" xmlns="http://www.w3.org/2000/svg">
<path fill-rule="evenodd" clip-rule="evenodd" d="M201.794 -3.05176e-05C156.306 -3.05176e-05 119.432 36.8746 119.432 82.3617C119.432 127.849 156.306 164.723 201.794 164.723H471.23C470.752 168.316 470.504 171.982 470.504 175.705V265.098C247.139 301.291 69.6748 482.343 43.7619 713.771L0.518814 1099.97C-4.54275 1145.18 27.9996 1185.93 73.2043 1190.99C118.409 1196.05 159.158 1163.51 164.219 1118.3L207.462 732.1C224.006 584.351 331.595 466.865 470.504 433.056V1109.14C470.504 1154.63 507.379 1191.5 552.866 1191.5C598.353 1191.5 635.228 1154.63 635.228 1109.14V432.806C779.953 467.117 891.807 589.924 907.275 743.778L944.835 1117.38C949.385 1162.64 989.763 1195.64 1035.02 1191.09C1080.28 1186.54 1113.28 1146.16 1108.73 1100.9L1071.17 727.3C1047.21 488.973 865.102 301.586 635.228 264.984V175.705C635.228 171.982 634.981 168.316 634.502 164.723H901.319C946.806 164.723 983.681 127.849 983.681 82.3617C983.681 36.8746 946.806 -3.05176e-05 901.319 -3.05176e-05H201.794ZM1494.06 382.521C1456.29 453.147 1437.4 535.681 1437.4 630.122C1437.4 725.385 1456.29 808.329 1494.06 878.955C1531.84 949.581 1583.17 1003.78 1648.04 1041.56C1713.74 1078.51 1786.83 1096.99 1867.31 1096.99C1947.79 1096.99 2020.47 1078.51 2085.35 1041.56C2151.05 1003.78 2202.79 949.581 2240.56 878.955C2279.16 808.329 2298.46 725.385 2298.46 630.122C2298.46 535.681 2279.16 453.147 2240.56 382.521C2202.79 311.896 2151.05 258.105 2085.35 221.15C2020.47 183.373 1947.79 164.485 1867.31 164.485C1786.83 164.485 1713.74 183.373 1648.04 221.15C1583.17 258.105 1531.84 311.896 1494.06 382.521ZM1655.44 789.03C1635.73 743.042 1625.87 690.072 1625.87 630.122C1625.87 570.172 1635.73 517.614 1655.44 472.446C1675.97 426.457 1704.3 391.144 1740.43 366.507C1777.39 341.049 1819.68 328.32 1867.31 328.32C1914.94 328.32 1956.83 341.049 1992.96 366.507C2029.92 391.144 2058.25 426.457 2077.96 472.446C2098.49 517.614 2108.75 570.172 2108.75 630.122C2108.75 690.072 2098.49 743.042 2077.96 789.03C2058.25 835.019 2029.92 870.743 1992.96 896.201C1956.83 920.838 1914.94 933.156 1867.31 933.156C1819.68 933.156 1777.39 920.838 1740.43 896.201C1704.3 870.743 1675.97 835.019 1655.44 789.03ZM3051 180.499H2324.21V339.407H2597.68V1082.21H2777.53V339.407H3051V180.499Z" fill="url(#paint0_linear_184_8)"/>
<defs>
<linearGradient id="paint0_linear_184_8" x1="3145.65" y1="595.754" x2="-450.969" y2="595.754" gradientUnits="userSpaceOnUse">
<stop stop-color="#03CDC1"/>
<stop offset="1" stop-color="#8AB9FF"/>
</linearGradient>
</defs>
</svg>
