<svg width="908" height="101" viewBox="0 0 908 101" fill="none" xmlns="http://www.w3.org/2000/svg">
<path d="M203.024 31.576C203.024 26.056 204.128 21.232 206.336 17.104C208.544 12.976 211.544 9.832 215.336 7.672C219.176 5.464 223.448 4.36 228.152 4.36C232.856 4.36 237.104 5.464 240.896 7.672C244.736 9.832 247.76 12.976 249.968 17.104C252.224 21.232 253.352 26.056 253.352 31.576C253.352 37.144 252.224 41.992 249.968 46.12C247.76 50.248 244.736 53.416 240.896 55.624C237.104 57.784 232.856 58.864 228.152 58.864C223.448 58.864 219.176 57.784 215.336 55.624C211.544 53.416 208.544 50.248 206.336 46.12C204.128 41.992 203.024 37.144 203.024 31.576ZM214.04 31.576C214.04 35.08 214.616 38.176 215.768 40.864C216.968 43.552 218.624 45.64 220.736 47.128C222.896 48.568 225.368 49.288 228.152 49.288C230.936 49.288 233.384 48.568 235.496 47.128C237.656 45.64 239.312 43.552 240.464 40.864C241.664 38.176 242.264 35.08 242.264 31.576C242.264 28.072 241.664 25 240.464 22.36C239.312 19.672 237.656 17.608 235.496 16.168C233.384 14.68 230.936 13.936 228.152 13.936C225.368 13.936 222.896 14.68 220.736 16.168C218.624 17.608 216.968 19.672 215.768 22.36C214.616 25 214.04 28.072 214.04 31.576ZM254.857 5.296H297.337V14.584H281.353V58H270.841V14.584H254.857V5.296ZM338.93 5.296C343.106 5.296 346.754 6.016 349.874 7.456C352.994 8.896 355.394 10.936 357.074 13.576C358.802 16.168 359.666 19.216 359.666 22.72C359.666 26.176 358.802 29.224 357.074 31.864C355.394 34.456 352.994 36.472 349.874 37.912C346.754 39.304 343.106 40 338.93 40H331.226V58H320.786V5.296H338.93ZM337.778 31.144C341.042 31.144 343.658 30.448 345.626 29.056C347.594 27.616 348.578 25.504 348.578 22.72C348.578 19.936 347.594 17.824 345.626 16.384C343.658 14.896 341.042 14.152 337.778 14.152H331.226V31.144H337.778ZM410.406 58L397.95 57.928L385.134 38.992H384.702H377.07V58H366.63V5.296H384.846C388.974 5.296 392.598 5.992 395.718 7.384C398.838 8.776 401.238 10.768 402.918 13.36C404.598 15.904 405.438 18.832 405.438 22.144C405.438 25.504 404.574 28.456 402.846 31C401.118 33.544 398.694 35.488 395.574 36.832L410.406 58ZM377.07 14.152V30.136H383.622C386.694 30.136 389.238 29.488 391.254 28.192C393.318 26.848 394.35 24.832 394.35 22.144C394.35 19.408 393.342 17.392 391.326 16.096C389.31 14.8 386.742 14.152 383.622 14.152H377.07ZM412.626 31.576C412.626 26.056 413.73 21.232 415.938 17.104C418.146 12.976 421.146 9.832 424.938 7.672C428.778 5.464 433.05 4.36 437.754 4.36C442.458 4.36 446.706 5.464 450.498 7.672C454.338 9.832 457.362 12.976 459.57 17.104C461.826 21.232 462.954 26.056 462.954 31.576C462.954 37.144 461.826 41.992 459.57 46.12C457.362 50.248 454.338 53.416 450.498 55.624C446.706 57.784 442.458 58.864 437.754 58.864C433.05 58.864 428.778 57.784 424.938 55.624C421.146 53.416 418.146 50.248 415.938 46.12C413.73 41.992 412.626 37.144 412.626 31.576ZM423.642 31.576C423.642 35.08 424.218 38.176 425.37 40.864C426.57 43.552 428.226 45.64 430.338 47.128C432.498 48.568 434.97 49.288 437.754 49.288C440.538 49.288 442.986 48.568 445.098 47.128C447.258 45.64 448.914 43.552 450.066 40.864C451.266 38.176 451.866 35.08 451.866 31.576C451.866 28.072 451.266 25 450.066 22.36C448.914 19.672 447.258 17.608 445.098 16.168C442.986 14.68 440.538 13.936 437.754 13.936C434.97 13.936 432.498 14.68 430.338 16.168C428.226 17.608 426.57 19.672 425.37 22.36C424.218 25 423.642 28.072 423.642 31.576ZM464.459 5.296H506.939V14.584H490.955V58H480.443V14.584H464.459V5.296ZM508.532 31.576C508.532 26.056 509.636 21.232 511.844 17.104C514.052 12.976 517.052 9.832 520.844 7.672C524.684 5.464 528.956 4.36 533.66 4.36C538.364 4.36 542.612 5.464 546.404 7.672C550.244 9.832 553.268 12.976 555.476 17.104C557.732 21.232 558.86 26.056 558.86 31.576C558.86 37.144 557.732 41.992 555.476 46.12C553.268 50.248 550.244 53.416 546.404 55.624C542.612 57.784 538.364 58.864 533.66 58.864C528.956 58.864 524.684 57.784 520.844 55.624C517.052 53.416 514.052 50.248 511.844 46.12C509.636 41.992 508.532 37.144 508.532 31.576ZM519.548 31.576C519.548 35.08 520.124 38.176 521.276 40.864C522.476 43.552 524.132 45.64 526.244 47.128C528.404 48.568 530.876 49.288 533.66 49.288C536.444 49.288 538.892 48.568 541.004 47.128C543.164 45.64 544.82 43.552 545.972 40.864C547.172 38.176 547.772 35.08 547.772 31.576C547.772 28.072 547.172 25 545.972 22.36C544.82 19.672 543.164 17.608 541.004 16.168C538.892 14.68 536.444 13.936 533.66 13.936C530.876 13.936 528.404 14.68 526.244 16.168C524.132 17.608 522.476 19.672 521.276 22.36C520.124 25 519.548 28.072 519.548 31.576ZM589.978 49.288C592.522 49.288 594.706 48.616 596.53 47.272C598.402 45.928 599.89 44.056 600.994 41.656L609.706 46.696C608.41 50.248 606.034 53.176 602.578 55.48C599.122 57.736 594.994 58.864 590.194 58.864C585.538 58.864 581.29 57.736 577.45 55.48C573.61 53.224 570.562 50.032 568.306 45.904C566.05 41.728 564.922 36.952 564.922 31.576C564.922 26.2 566.026 21.448 568.234 17.32C570.49 13.192 573.538 10 577.378 7.744C581.266 5.488 585.538 4.36 590.194 4.36C594.994 4.36 599.122 5.512 602.578 7.816C606.034 10.072 608.41 12.976 609.706 16.528L600.994 21.568C599.89 19.168 598.402 17.296 596.53 15.952C594.706 14.608 592.522 13.936 589.978 13.936C587.29 13.936 584.89 14.656 582.778 16.096C580.666 17.536 578.986 19.6 577.738 22.288C576.538 24.928 575.938 28.024 575.938 31.576C575.938 35.128 576.538 38.248 577.738 40.936C578.986 43.624 580.666 45.688 582.778 47.128C584.89 48.568 587.29 49.288 589.978 49.288ZM612.594 31.576C612.594 26.056 613.698 21.232 615.906 17.104C618.114 12.976 621.114 9.832 624.906 7.672C628.746 5.464 633.018 4.36 637.722 4.36C642.426 4.36 646.674 5.464 650.466 7.672C654.306 9.832 657.33 12.976 659.538 17.104C661.794 21.232 662.922 26.056 662.922 31.576C662.922 37.144 661.794 41.992 659.538 46.12C657.33 50.248 654.306 53.416 650.466 55.624C646.674 57.784 642.426 58.864 637.722 58.864C633.018 58.864 628.746 57.784 624.906 55.624C621.114 53.416 618.114 50.248 615.906 46.12C613.698 41.992 612.594 37.144 612.594 31.576ZM623.61 31.576C623.61 35.08 624.186 38.176 625.338 40.864C626.538 43.552 628.194 45.64 630.306 47.128C632.466 48.568 634.938 49.288 637.722 49.288C640.506 49.288 642.954 48.568 645.066 47.128C647.226 45.64 648.882 43.552 650.034 40.864C651.234 38.176 651.834 35.08 651.834 31.576C651.834 28.072 651.234 25 650.034 22.36C648.882 19.672 647.226 17.608 645.066 16.168C642.954 14.68 640.506 13.936 637.722 13.936C634.938 13.936 632.466 14.68 630.306 16.168C628.194 17.608 626.538 19.672 625.338 22.36C624.186 25 623.61 28.072 623.61 31.576ZM671.505 5.296H681.945V48.64H705.921V58H671.505V5.296Z" fill="white"/>
<path d="M15.54 88.232C15.54 89.4827 15.232 90.5653 14.616 91.48C14.0187 92.3947 13.1787 93.0947 12.096 93.58C11.032 94.0653 9.8 94.308 8.4 94.308C6.44 94.308 4.732 93.8507 3.276 92.936C1.82 92.0027 0.858667 90.7613 0.392 89.212L2.828 87.812C3.31333 89.0067 4.032 89.9307 4.984 90.584C5.936 91.2373 7.10267 91.564 8.484 91.564C9.716 91.564 10.668 91.3027 11.34 90.78C12.0307 90.2387 12.376 89.492 12.376 88.54C12.376 87.7747 12.152 87.1493 11.704 86.664C11.2747 86.16 10.7333 85.7773 10.08 85.516C9.42667 85.236 8.54 84.928 7.42 84.592C6.05733 84.1813 4.97467 83.7987 4.172 83.444C3.36933 83.0707 2.67867 82.5293 2.1 81.82C1.54 81.092 1.26 80.14 1.26 78.964C1.26 77.732 1.57733 76.6773 2.212 75.8C2.84667 74.9227 3.696 74.2693 4.76 73.84C5.84267 73.392 7.04667 73.168 8.372 73.168C10.2013 73.168 11.704 73.5693 12.88 74.372C14.056 75.1747 14.84 76.22 15.232 77.508L12.796 78.936C11.956 76.9013 10.444 75.884 8.26 75.884C7.10267 75.884 6.16933 76.1453 5.46 76.668C4.76933 77.172 4.424 77.8627 4.424 78.74C4.424 79.3933 4.62 79.9253 5.012 80.336C5.42267 80.7467 5.92667 81.0827 6.524 81.344C7.14 81.5867 7.97067 81.8573 9.016 82.156C10.3973 82.5667 11.5173 82.968 12.376 83.36C13.2533 83.752 14 84.34 14.616 85.124C15.232 85.908 15.54 86.944 15.54 88.232ZM28.5908 79.468L32.1468 89.772L35.4508 79.468H38.1948L33.0148 94H31.0548L27.3588 83.948L23.8308 94H21.8428L16.4388 79.468H19.4348L22.9908 89.828L26.2668 79.468H28.5908ZM45.7104 79.132C47.4464 79.132 48.8464 79.6453 49.9104 80.672C50.9931 81.6987 51.5344 83.1733 51.5344 85.096V94H49.0424C49.0051 93.16 48.9584 92.5627 48.9024 92.208C48.0064 93.608 46.5691 94.308 44.5904 94.308C43.6198 94.308 42.7238 94.1307 41.9024 93.776C41.0998 93.4213 40.4558 92.908 39.9704 92.236C39.4851 91.564 39.2424 90.752 39.2424 89.8C39.2424 88.3627 39.8304 87.224 41.0064 86.384C42.1824 85.544 43.6851 85.124 45.5144 85.124C46.5411 85.124 47.5958 85.264 48.6784 85.544V85.488C48.6784 84.1627 48.4171 83.192 47.8944 82.576C47.3718 81.9413 46.5878 81.624 45.5424 81.624C44.7024 81.624 43.9931 81.8107 43.4144 82.184C42.8544 82.5387 42.3784 83.0613 41.9864 83.752L39.8584 82.52C40.3251 81.4933 41.0811 80.672 42.1264 80.056C43.1718 79.44 44.3664 79.132 45.7104 79.132ZM48.6784 87.728C47.5584 87.448 46.5784 87.308 45.7384 87.308C44.6184 87.308 43.7504 87.5227 43.1344 87.952C42.5184 88.3813 42.2104 88.9787 42.2104 89.744C42.2104 90.4347 42.4624 90.9853 42.9664 91.396C43.4704 91.788 44.1331 91.984 44.9544 91.984C45.9811 91.984 46.8584 91.6947 47.5864 91.116C48.3144 90.5187 48.6784 89.6973 48.6784 88.652V87.728ZM62.9237 79.132C64.0437 79.132 65.089 79.44 66.0597 80.056C67.049 80.6533 67.8423 81.5307 68.4397 82.688C69.037 83.8267 69.3357 85.1707 69.3357 86.72C69.3357 88.288 69.037 89.6507 68.4397 90.808C67.8423 91.9467 67.049 92.8147 66.0597 93.412C65.089 94.0093 64.0437 94.308 62.9237 94.308C61.9903 94.308 61.113 94.1027 60.2917 93.692C59.4703 93.2813 58.7983 92.6653 58.2757 91.844V100.496H55.3917V79.468H57.9397C57.977 80.4013 58.033 81.1947 58.1077 81.848C58.6303 80.952 59.3117 80.28 60.1517 79.832C61.0103 79.3653 61.9343 79.132 62.9237 79.132ZM62.4197 91.676C63.6143 91.676 64.5663 91.2467 65.2757 90.388C65.985 89.5107 66.3397 88.288 66.3397 86.72C66.3397 85.1707 65.9757 83.9573 65.2477 83.08C64.5383 82.184 63.5957 81.736 62.4197 81.736C61.281 81.736 60.301 82.1467 59.4797 82.968C58.677 83.7893 58.2757 85.04 58.2757 86.72C58.2757 88.4187 58.677 89.6693 59.4797 90.472C60.301 91.2747 61.281 91.676 62.4197 91.676ZM73.2565 90.64C73.8539 90.64 74.3485 90.8827 74.7405 91.368C75.1325 91.8347 75.3285 92.544 75.3285 93.496C75.3285 94.8773 74.9459 96.0253 74.1805 96.94C73.4339 97.8733 72.4539 98.452 71.2405 98.676V97.108C72.6219 96.7347 73.3685 95.82 73.4805 94.364C73.4432 94.3827 73.3685 94.392 73.2565 94.392C72.7339 94.392 72.3045 94.2147 71.9685 93.86C71.6512 93.4867 71.4925 93.0387 71.4925 92.516C71.4925 91.9933 71.6605 91.5547 71.9965 91.2C72.3325 90.8267 72.7525 90.64 73.2565 90.64ZM89.2014 94H86.3174V72.692H89.2014V94ZM99.4781 79.132C100.747 79.132 101.858 79.4307 102.81 80.028C103.762 80.6067 104.499 81.4093 105.022 82.436C105.545 83.444 105.806 84.5827 105.806 85.852C105.806 86.2813 105.759 86.7947 105.666 87.392H95.4741C95.5861 88.848 96.0341 89.9493 96.8181 90.696C97.6021 91.424 98.5821 91.788 99.7581 91.788C101.289 91.788 102.399 91.1533 103.09 89.884L105.246 91.144C104.873 92.152 104.163 92.936 103.118 93.496C102.073 94.0373 100.906 94.308 99.6181 94.308C98.2928 94.308 97.0888 94.0187 96.0061 93.44C94.9234 92.8427 94.0554 91.9653 93.4021 90.808C92.7674 89.6507 92.4501 88.2693 92.4501 86.664C92.4501 85.096 92.7674 83.7427 93.4021 82.604C94.0554 81.4653 94.9141 80.6067 95.9781 80.028C97.0608 79.4307 98.2274 79.132 99.4781 79.132ZM99.3661 81.652C98.4141 81.652 97.5834 81.96 96.8741 82.576C96.1834 83.1733 95.7448 84.0507 95.5581 85.208H102.782C102.707 84.088 102.362 83.22 101.746 82.604C101.13 81.9693 100.337 81.652 99.3661 81.652ZM116.133 79.132C117.701 79.132 118.951 79.6453 119.885 80.672C120.818 81.6987 121.285 83.1827 121.285 85.124V94H118.401V85.992C118.401 84.648 118.149 83.612 117.645 82.884C117.141 82.156 116.375 81.792 115.349 81.792C114.303 81.792 113.407 82.1653 112.661 82.912C111.933 83.64 111.569 84.6853 111.569 86.048V94H108.685V79.468H111.233C111.27 80.3827 111.326 81.176 111.401 81.848C111.886 80.952 112.53 80.28 113.333 79.832C114.154 79.3653 115.087 79.132 116.133 79.132ZM135.394 72.692H138.25V94H135.73C135.636 92.7307 135.571 91.9373 135.534 91.62C135.011 92.516 134.32 93.188 133.462 93.636C132.622 94.084 131.726 94.308 130.774 94.308C129.635 94.308 128.571 94.0093 127.582 93.412C126.592 92.8147 125.799 91.9467 125.202 90.808C124.604 89.6507 124.306 88.288 124.306 86.72C124.306 85.1707 124.604 83.8267 125.202 82.688C125.799 81.5307 126.592 80.6533 127.582 80.056C128.571 79.44 129.635 79.132 130.774 79.132C131.688 79.132 132.547 79.3373 133.35 79.748C134.171 80.1587 134.852 80.7653 135.394 81.568V72.692ZM131.25 91.732C132.388 91.732 133.359 91.3213 134.162 90.5C134.983 89.6787 135.394 88.4187 135.394 86.72C135.394 85.04 134.983 83.7987 134.162 82.996C133.359 82.1933 132.388 81.792 131.25 81.792C130.055 81.792 129.094 82.2213 128.366 83.08C127.656 83.9387 127.302 85.152 127.302 86.72C127.302 88.3067 127.656 89.5387 128.366 90.416C129.094 91.2933 130.055 91.732 131.25 91.732ZM143.913 90.64C144.51 90.64 145.005 90.8827 145.397 91.368C145.789 91.8347 145.985 92.544 145.985 93.496C145.985 94.8773 145.602 96.0253 144.837 96.94C144.09 97.8733 143.11 98.452 141.897 98.676V97.108C143.278 96.7347 144.025 95.82 144.137 94.364C144.099 94.3827 144.025 94.392 143.913 94.392C143.39 94.392 142.961 94.2147 142.625 93.86C142.307 93.4867 142.149 93.0387 142.149 92.516C142.149 91.9933 142.317 91.5547 142.653 91.2C142.989 90.8267 143.409 90.64 143.913 90.64ZM164.506 79.132C165.626 79.132 166.671 79.44 167.642 80.056C168.631 80.6533 169.424 81.5307 170.022 82.688C170.619 83.8267 170.918 85.1707 170.918 86.72C170.918 88.288 170.619 89.6507 170.022 90.808C169.424 91.9467 168.631 92.8147 167.642 93.412C166.671 94.0093 165.626 94.308 164.506 94.308C163.535 94.308 162.62 94.084 161.762 93.636C160.903 93.188 160.212 92.516 159.69 91.62C159.615 92.348 159.559 93.1413 159.522 94H156.974V72.692H159.858V81.596C160.38 80.7747 161.043 80.1587 161.846 79.748C162.667 79.3373 163.554 79.132 164.506 79.132ZM164.002 91.732C165.178 91.732 166.12 91.2933 166.83 90.416C167.558 89.52 167.922 88.288 167.922 86.72C167.922 85.1707 167.567 83.9667 166.858 83.108C166.148 82.2307 165.196 81.792 164.002 81.792C162.863 81.792 161.883 82.1933 161.062 82.996C160.259 83.7987 159.858 85.04 159.858 86.72C159.858 88.4187 160.259 89.6787 161.062 90.5C161.883 91.3213 162.863 91.732 164.002 91.732ZM173.333 86.72C173.333 85.2453 173.66 83.9293 174.313 82.772C174.966 81.6147 175.834 80.7187 176.917 80.084C178.018 79.4493 179.204 79.132 180.473 79.132C181.724 79.132 182.89 79.4493 183.973 80.084C185.056 80.7187 185.924 81.6147 186.577 82.772C187.23 83.9293 187.557 85.2453 187.557 86.72C187.557 88.1947 187.23 89.5107 186.577 90.668C185.924 91.8253 185.056 92.7213 183.973 93.356C182.89 93.9907 181.724 94.308 180.473 94.308C179.204 94.308 178.018 93.9907 176.917 93.356C175.834 92.7213 174.966 91.8253 174.313 90.668C173.66 89.5107 173.333 88.1947 173.333 86.72ZM176.357 86.72C176.357 88.2507 176.74 89.464 177.505 90.36C178.289 91.256 179.269 91.704 180.445 91.704C181.64 91.704 182.62 91.256 183.385 90.36C184.15 89.464 184.533 88.2507 184.533 86.72C184.533 85.1893 184.141 83.976 183.357 83.08C182.592 82.184 181.621 81.736 180.445 81.736C179.269 81.736 178.289 82.184 177.505 83.08C176.74 83.976 176.357 85.1893 176.357 86.72ZM197.434 79.132C197.919 79.132 198.367 79.1973 198.778 79.328C199.207 79.4587 199.543 79.636 199.786 79.86L198.694 82.128C198.265 81.8667 197.789 81.736 197.266 81.736C196.202 81.736 195.334 82.1747 194.662 83.052C194.009 83.9293 193.682 85.18 193.682 86.804V94H190.798V79.468H193.346C193.383 80.364 193.439 81.148 193.514 81.82C193.943 80.924 194.485 80.252 195.138 79.804C195.81 79.356 196.575 79.132 197.434 79.132ZM208.399 79.132C208.884 79.132 209.332 79.1973 209.743 79.328C210.172 79.4587 210.508 79.636 210.751 79.86L209.659 82.128C209.229 81.8667 208.753 81.736 208.231 81.736C207.167 81.736 206.299 82.1747 205.627 83.052C204.973 83.9293 204.647 85.18 204.647 86.804V94H201.763V79.468H204.311C204.348 80.364 204.404 81.148 204.479 81.82C204.908 80.924 205.449 80.252 206.103 79.804C206.775 79.356 207.54 79.132 208.399 79.132ZM210.958 86.72C210.958 85.2453 211.285 83.9293 211.938 82.772C212.591 81.6147 213.459 80.7187 214.542 80.084C215.643 79.4493 216.829 79.132 218.098 79.132C219.349 79.132 220.515 79.4493 221.598 80.084C222.681 80.7187 223.549 81.6147 224.202 82.772C224.855 83.9293 225.182 85.2453 225.182 86.72C225.182 88.1947 224.855 89.5107 224.202 90.668C223.549 91.8253 222.681 92.7213 221.598 93.356C220.515 93.9907 219.349 94.308 218.098 94.308C216.829 94.308 215.643 93.9907 214.542 93.356C213.459 92.7213 212.591 91.8253 211.938 90.668C211.285 89.5107 210.958 88.1947 210.958 86.72ZM213.982 86.72C213.982 88.2507 214.365 89.464 215.13 90.36C215.914 91.256 216.894 91.704 218.07 91.704C219.265 91.704 220.245 91.256 221.01 90.36C221.775 89.464 222.158 88.2507 222.158 86.72C222.158 85.1893 221.766 83.976 220.982 83.08C220.217 82.184 219.246 81.736 218.07 81.736C216.894 81.736 215.914 82.184 215.13 83.08C214.365 83.976 213.982 85.1893 213.982 86.72ZM238.153 79.468L241.709 89.772L245.013 79.468H247.757L242.577 94H240.617L236.921 83.948L233.393 94H231.405L226.001 79.468H228.997L232.553 89.828L235.829 79.468H238.153ZM249.05 90.64C249.647 90.64 250.142 90.8827 250.534 91.368C250.926 91.8347 251.122 92.544 251.122 93.496C251.122 94.8773 250.739 96.0253 249.974 96.94C249.227 97.8733 248.247 98.452 247.034 98.676V97.108C248.415 96.7347 249.162 95.82 249.274 94.364C249.236 94.3827 249.162 94.392 249.05 94.392C248.527 94.392 248.098 94.2147 247.762 93.86C247.444 93.4867 247.285 93.0387 247.285 92.516C247.285 91.9933 247.454 91.5547 247.79 91.2C248.126 90.8267 248.546 90.64 249.05 90.64ZM268.298 79.132C269.568 79.132 270.678 79.4307 271.63 80.028C272.582 80.6067 273.32 81.4093 273.842 82.436C274.365 83.444 274.626 84.5827 274.626 85.852C274.626 86.2813 274.58 86.7947 274.486 87.392H264.294C264.406 88.848 264.854 89.9493 265.638 90.696C266.422 91.424 267.402 91.788 268.578 91.788C270.109 91.788 271.22 91.1533 271.91 89.884L274.066 91.144C273.693 92.152 272.984 92.936 271.938 93.496C270.893 94.0373 269.726 94.308 268.438 94.308C267.113 94.308 265.909 94.0187 264.826 93.44C263.744 92.8427 262.876 91.9653 262.222 90.808C261.588 89.6507 261.27 88.2693 261.27 86.664C261.27 85.096 261.588 83.7427 262.222 82.604C262.876 81.4653 263.734 80.6067 264.798 80.028C265.881 79.4307 267.048 79.132 268.298 79.132ZM268.186 81.652C267.234 81.652 266.404 81.96 265.694 82.576C265.004 83.1733 264.565 84.0507 264.378 85.208H271.602C271.528 84.088 271.182 83.22 270.566 82.604C269.95 81.9693 269.157 81.652 268.186 81.652ZM283.273 79.132C285.009 79.132 286.409 79.6453 287.473 80.672C288.556 81.6987 289.097 83.1733 289.097 85.096V94H286.605C286.568 93.16 286.521 92.5627 286.465 92.208C285.569 93.608 284.132 94.308 282.153 94.308C281.182 94.308 280.286 94.1307 279.465 93.776C278.662 93.4213 278.018 92.908 277.533 92.236C277.048 91.564 276.805 90.752 276.805 89.8C276.805 88.3627 277.393 87.224 278.569 86.384C279.745 85.544 281.248 85.124 283.077 85.124C284.104 85.124 285.158 85.264 286.241 85.544V85.488C286.241 84.1627 285.98 83.192 285.457 82.576C284.934 81.9413 284.15 81.624 283.105 81.624C282.265 81.624 281.556 81.8107 280.977 82.184C280.417 82.5387 279.941 83.0613 279.549 83.752L277.421 82.52C277.888 81.4933 278.644 80.672 279.689 80.056C280.734 79.44 281.929 79.132 283.273 79.132ZM286.241 87.728C285.121 87.448 284.141 87.308 283.301 87.308C282.181 87.308 281.313 87.5227 280.697 87.952C280.081 88.3813 279.773 88.9787 279.773 89.744C279.773 90.4347 280.025 90.9853 280.529 91.396C281.033 91.788 281.696 91.984 282.517 91.984C283.544 91.984 284.421 91.6947 285.149 91.116C285.877 90.5187 286.241 89.6973 286.241 88.652V87.728ZM299.59 79.132C300.075 79.132 300.523 79.1973 300.934 79.328C301.363 79.4587 301.699 79.636 301.942 79.86L300.85 82.128C300.421 81.8667 299.945 81.736 299.422 81.736C298.358 81.736 297.49 82.1747 296.818 83.052C296.165 83.9293 295.838 85.18 295.838 86.804V94H292.954V79.468H295.502C295.539 80.364 295.595 81.148 295.67 81.82C296.099 80.924 296.641 80.252 297.294 79.804C297.966 79.356 298.731 79.132 299.59 79.132ZM311.367 79.132C312.935 79.132 314.186 79.6453 315.119 80.672C316.052 81.6987 316.519 83.1827 316.519 85.124V94H313.635V85.992C313.635 84.648 313.383 83.612 312.879 82.884C312.375 82.156 311.61 81.792 310.583 81.792C309.538 81.792 308.642 82.1653 307.895 82.912C307.167 83.64 306.803 84.6853 306.803 86.048V94H303.919V79.468H306.467C306.504 80.3827 306.56 81.176 306.635 81.848C307.12 80.952 307.764 80.28 308.567 79.832C309.388 79.3653 310.322 79.132 311.367 79.132ZM321.948 90.64C322.545 90.64 323.04 90.8827 323.432 91.368C323.824 91.8347 324.02 92.544 324.02 93.496C324.02 94.8773 323.637 96.0253 322.872 96.94C322.125 97.8733 321.145 98.452 319.932 98.676V97.108C321.313 96.7347 322.06 95.82 322.172 94.364C322.135 94.3827 322.06 94.392 321.948 94.392C321.425 94.392 320.996 94.2147 320.66 93.86C320.343 93.4867 320.184 93.0387 320.184 92.516C320.184 91.9933 320.352 91.5547 320.688 91.2C321.024 90.8267 321.444 90.64 321.948 90.64ZM337.893 94H335.009V72.692H337.893V94ZM348.169 79.132C349.439 79.132 350.55 79.4307 351.502 80.028C352.454 80.6067 353.191 81.4093 353.714 82.436C354.236 83.444 354.498 84.5827 354.498 85.852C354.498 86.2813 354.451 86.7947 354.358 87.392H344.166C344.278 88.848 344.726 89.9493 345.51 90.696C346.294 91.424 347.274 91.788 348.45 91.788C349.98 91.788 351.091 91.1533 351.782 89.884L353.938 91.144C353.564 92.152 352.855 92.936 351.81 93.496C350.764 94.0373 349.598 94.308 348.31 94.308C346.984 94.308 345.78 94.0187 344.698 93.44C343.615 92.8427 342.747 91.9653 342.094 90.808C341.459 89.6507 341.142 88.2693 341.142 86.664C341.142 85.096 341.459 83.7427 342.094 82.604C342.747 81.4653 343.606 80.6067 344.67 80.028C345.752 79.4307 346.919 79.132 348.169 79.132ZM348.058 81.652C347.106 81.652 346.275 81.96 345.566 82.576C344.875 83.1733 344.436 84.0507 344.25 85.208H351.474C351.399 84.088 351.054 83.22 350.438 82.604C349.822 81.9693 349.028 81.652 348.058 81.652ZM358.749 79.468L362.977 90.248L366.953 79.468H369.949L363.985 94H361.661L355.501 79.468H358.749ZM377.81 79.132C379.079 79.132 380.19 79.4307 381.142 80.028C382.094 80.6067 382.831 81.4093 383.354 82.436C383.877 83.444 384.138 84.5827 384.138 85.852C384.138 86.2813 384.091 86.7947 383.998 87.392H373.806C373.918 88.848 374.366 89.9493 375.15 90.696C375.934 91.424 376.914 91.788 378.09 91.788C379.621 91.788 380.731 91.1533 381.422 89.884L383.578 91.144C383.205 92.152 382.495 92.936 381.45 93.496C380.405 94.0373 379.238 94.308 377.95 94.308C376.625 94.308 375.421 94.0187 374.338 93.44C373.255 92.8427 372.387 91.9653 371.734 90.808C371.099 89.6507 370.782 88.2693 370.782 86.664C370.782 85.096 371.099 83.7427 371.734 82.604C372.387 81.4653 373.246 80.6067 374.31 80.028C375.393 79.4307 376.559 79.132 377.81 79.132ZM377.698 81.652C376.746 81.652 375.915 81.96 375.206 82.576C374.515 83.1733 374.077 84.0507 373.89 85.208H381.114C381.039 84.088 380.694 83.22 380.078 82.604C379.462 81.9693 378.669 81.652 377.698 81.652ZM393.653 79.132C394.138 79.132 394.586 79.1973 394.997 79.328C395.426 79.4587 395.762 79.636 396.005 79.86L394.913 82.128C394.483 81.8667 394.007 81.736 393.485 81.736C392.421 81.736 391.553 82.1747 390.881 83.052C390.227 83.9293 389.901 85.18 389.901 86.804V94H387.017V79.468H389.565C389.602 80.364 389.658 81.148 389.733 81.82C390.162 80.924 390.703 80.252 391.357 79.804C392.029 79.356 392.794 79.132 393.653 79.132ZM402.574 79.132C404.31 79.132 405.71 79.6453 406.774 80.672C407.856 81.6987 408.398 83.1733 408.398 85.096V94H405.906C405.868 93.16 405.822 92.5627 405.766 92.208C404.87 93.608 403.432 94.308 401.454 94.308C400.483 94.308 399.587 94.1307 398.766 93.776C397.963 93.4213 397.319 92.908 396.834 92.236C396.348 91.564 396.106 90.752 396.106 89.8C396.106 88.3627 396.694 87.224 397.87 86.384C399.046 85.544 400.548 85.124 402.378 85.124C403.404 85.124 404.459 85.264 405.542 85.544V85.488C405.542 84.1627 405.28 83.192 404.758 82.576C404.235 81.9413 403.451 81.624 402.406 81.624C401.566 81.624 400.856 81.8107 400.278 82.184C399.718 82.5387 399.242 83.0613 398.85 83.752L396.722 82.52C397.188 81.4933 397.944 80.672 398.99 80.056C400.035 79.44 401.23 79.132 402.574 79.132ZM405.542 87.728C404.422 87.448 403.442 87.308 402.602 87.308C401.482 87.308 400.614 87.5227 399.998 87.952C399.382 88.3813 399.074 88.9787 399.074 89.744C399.074 90.4347 399.326 90.9853 399.83 91.396C400.334 91.788 400.996 91.984 401.818 91.984C402.844 91.984 403.722 91.6947 404.45 91.116C405.178 90.5187 405.542 89.6973 405.542 88.652V87.728ZM425.359 79.468V92.88C425.359 95.736 424.659 97.7707 423.259 98.984C421.878 100.216 420.216 100.832 418.275 100.832C416.782 100.832 415.456 100.515 414.299 99.88C413.16 99.2453 412.376 98.3587 411.947 97.22L414.215 95.904C414.943 97.4347 416.296 98.2 418.275 98.2C419.638 98.2 420.683 97.78 421.411 96.94C422.139 96.1187 422.503 94.7187 422.503 92.74L422.587 91.76C422.064 92.6187 421.392 93.2627 420.571 93.692C419.768 94.1027 418.891 94.308 417.939 94.308C416.8 94.308 415.727 94.0093 414.719 93.412C413.73 92.796 412.927 91.9187 412.311 90.78C411.714 89.6227 411.415 88.2693 411.415 86.72C411.415 85.152 411.714 83.7987 412.311 82.66C412.927 81.5027 413.73 80.6253 414.719 80.028C415.727 79.4307 416.8 79.132 417.939 79.132C418.891 79.132 419.787 79.356 420.627 79.804C421.467 80.252 422.139 80.924 422.643 81.82C422.755 80.7373 422.82 79.9533 422.839 79.468H425.359ZM418.359 91.732C419.498 91.732 420.468 91.3213 421.271 90.5C422.092 89.6787 422.503 88.4187 422.503 86.72C422.503 85.04 422.092 83.7987 421.271 82.996C420.468 82.1933 419.498 81.792 418.359 81.792C417.164 81.792 416.203 82.2213 415.475 83.08C414.766 83.9387 414.411 85.152 414.411 86.72C414.411 88.3067 414.766 89.5387 415.475 90.416C416.203 91.2933 417.164 91.732 418.359 91.732ZM435.615 79.132C436.884 79.132 437.995 79.4307 438.947 80.028C439.899 80.6067 440.636 81.4093 441.159 82.436C441.681 83.444 441.943 84.5827 441.943 85.852C441.943 86.2813 441.896 86.7947 441.803 87.392H431.611C431.723 88.848 432.171 89.9493 432.955 90.696C433.739 91.424 434.719 91.788 435.895 91.788C437.425 91.788 438.536 91.1533 439.227 89.884L441.383 91.144C441.009 92.152 440.3 92.936 439.255 93.496C438.209 94.0373 437.043 94.308 435.755 94.308C434.429 94.308 433.225 94.0187 432.143 93.44C431.06 92.8427 430.192 91.9653 429.539 90.808C428.904 89.6507 428.587 88.2693 428.587 86.664C428.587 85.096 428.904 83.7427 429.539 82.604C430.192 81.4653 431.051 80.6067 432.115 80.028C433.197 79.4307 434.364 79.132 435.615 79.132ZM435.503 81.652C434.551 81.652 433.72 81.96 433.011 82.576C432.32 83.1733 431.881 84.0507 431.695 85.208H438.919C438.844 84.088 438.499 83.22 437.883 82.604C437.267 81.9693 436.473 81.652 435.503 81.652ZM460.992 93.412C460.171 94.0093 459.079 94.308 457.716 94.308C456.335 94.308 455.206 93.9253 454.328 93.16C453.47 92.3947 453.04 91.032 453.04 89.072V81.932H450.576V79.468H453.04V75.268H455.896V79.468H460.18V81.932H455.896V88.68C455.896 90.696 456.643 91.704 458.136 91.704C458.808 91.704 459.434 91.5267 460.012 91.172L460.992 93.412ZM469.805 79.132C470.29 79.132 470.738 79.1973 471.149 79.328C471.578 79.4587 471.914 79.636 472.157 79.86L471.065 82.128C470.636 81.8667 470.16 81.736 469.637 81.736C468.573 81.736 467.705 82.1747 467.033 83.052C466.38 83.9293 466.053 85.18 466.053 86.804V94H463.169V79.468H465.717C465.754 80.364 465.81 81.148 465.885 81.82C466.314 80.924 466.856 80.252 467.509 79.804C468.181 79.356 468.946 79.132 469.805 79.132ZM478.726 79.132C480.462 79.132 481.862 79.6453 482.926 80.672C484.009 81.6987 484.55 83.1733 484.55 85.096V94H482.058C482.021 93.16 481.974 92.5627 481.918 92.208C481.022 93.608 479.585 94.308 477.606 94.308C476.635 94.308 475.739 94.1307 474.918 93.776C474.115 93.4213 473.471 92.908 472.986 92.236C472.501 91.564 472.258 90.752 472.258 89.8C472.258 88.3627 472.846 87.224 474.022 86.384C475.198 85.544 476.701 85.124 478.53 85.124C479.557 85.124 480.611 85.264 481.694 85.544V85.488C481.694 84.1627 481.433 83.192 480.91 82.576C480.387 81.9413 479.603 81.624 478.558 81.624C477.718 81.624 477.009 81.8107 476.43 82.184C475.87 82.5387 475.394 83.0613 475.002 83.752L472.874 82.52C473.341 81.4933 474.097 80.672 475.142 80.056C476.187 79.44 477.382 79.132 478.726 79.132ZM481.694 87.728C480.574 87.448 479.594 87.308 478.754 87.308C477.634 87.308 476.766 87.5227 476.15 87.952C475.534 88.3813 475.226 88.9787 475.226 89.744C475.226 90.4347 475.478 90.9853 475.982 91.396C476.486 91.788 477.149 91.984 477.97 91.984C478.997 91.984 479.874 91.6947 480.602 91.116C481.33 90.5187 481.694 89.6973 481.694 88.652V87.728ZM498.655 72.692H501.511V94H498.991C498.898 92.7307 498.833 91.9373 498.795 91.62C498.273 92.516 497.582 93.188 496.723 93.636C495.883 94.084 494.987 94.308 494.035 94.308C492.897 94.308 491.833 94.0093 490.843 93.412C489.854 92.8147 489.061 91.9467 488.463 90.808C487.866 89.6507 487.567 88.288 487.567 86.72C487.567 85.1707 487.866 83.8267 488.463 82.688C489.061 81.5307 489.854 80.6533 490.843 80.056C491.833 79.44 492.897 79.132 494.035 79.132C494.95 79.132 495.809 79.3373 496.611 79.748C497.433 80.1587 498.114 80.7653 498.655 81.568V72.692ZM494.511 91.732C495.65 91.732 496.621 91.3213 497.423 90.5C498.245 89.6787 498.655 88.4187 498.655 86.72C498.655 85.04 498.245 83.7987 497.423 82.996C496.621 82.1933 495.65 81.792 494.511 81.792C493.317 81.792 492.355 82.2213 491.627 83.08C490.918 83.9387 490.563 85.152 490.563 86.72C490.563 88.3067 490.918 89.5387 491.627 90.416C492.355 91.2933 493.317 91.732 494.511 91.732ZM511.794 79.132C513.064 79.132 514.175 79.4307 515.127 80.028C516.079 80.6067 516.816 81.4093 517.339 82.436C517.861 83.444 518.123 84.5827 518.123 85.852C518.123 86.2813 518.076 86.7947 517.983 87.392H507.791C507.903 88.848 508.351 89.9493 509.135 90.696C509.919 91.424 510.899 91.788 512.075 91.788C513.605 91.788 514.716 91.1533 515.407 89.884L517.562 91.144C517.189 92.152 516.48 92.936 515.435 93.496C514.389 94.0373 513.223 94.308 511.935 94.308C510.609 94.308 509.405 94.0187 508.323 93.44C507.24 92.8427 506.372 91.9653 505.719 90.808C505.084 89.6507 504.767 88.2693 504.767 86.664C504.767 85.096 505.084 83.7427 505.719 82.604C506.372 81.4653 507.231 80.6067 508.295 80.028C509.377 79.4307 510.544 79.132 511.794 79.132ZM511.683 81.652C510.731 81.652 509.9 81.96 509.191 82.576C508.5 83.1733 508.061 84.0507 507.875 85.208H515.099C515.024 84.088 514.679 83.22 514.063 82.604C513.447 81.9693 512.653 81.652 511.683 81.652ZM527.708 86.72C527.708 85.2453 528.035 83.9293 528.688 82.772C529.341 81.6147 530.209 80.7187 531.292 80.084C532.393 79.4493 533.579 79.132 534.848 79.132C536.099 79.132 537.265 79.4493 538.348 80.084C539.431 80.7187 540.299 81.6147 540.952 82.772C541.605 83.9293 541.932 85.2453 541.932 86.72C541.932 88.1947 541.605 89.5107 540.952 90.668C540.299 91.8253 539.431 92.7213 538.348 93.356C537.265 93.9907 536.099 94.308 534.848 94.308C533.579 94.308 532.393 93.9907 531.292 93.356C530.209 92.7213 529.341 91.8253 528.688 90.668C528.035 89.5107 527.708 88.1947 527.708 86.72ZM530.732 86.72C530.732 88.2507 531.115 89.464 531.88 90.36C532.664 91.256 533.644 91.704 534.82 91.704C536.015 91.704 536.995 91.256 537.76 90.36C538.525 89.464 538.908 88.2507 538.908 86.72C538.908 85.1893 538.516 83.976 537.732 83.08C536.967 82.184 535.996 81.736 534.82 81.736C533.644 81.736 532.664 82.184 531.88 83.08C531.115 83.976 530.732 85.1893 530.732 86.72ZM552.621 79.132C554.189 79.132 555.44 79.6453 556.373 80.672C557.306 81.6987 557.773 83.1827 557.773 85.124V94H554.889V85.992C554.889 84.648 554.637 83.612 554.133 82.884C553.629 82.156 552.864 81.792 551.837 81.792C550.792 81.792 549.896 82.1653 549.149 82.912C548.421 83.64 548.057 84.6853 548.057 86.048V94H545.173V79.468H547.721C547.758 80.3827 547.814 81.176 547.889 81.848C548.374 80.952 549.018 80.28 549.821 79.832C550.642 79.3653 551.576 79.132 552.621 79.132ZM578.925 79.468H581.921L575.201 96.408C574.585 97.9947 573.894 99.124 573.129 99.796C572.382 100.487 571.374 100.832 570.105 100.832C568.891 100.832 567.911 100.515 567.165 99.88L568.285 97.612C568.807 98.004 569.414 98.2 570.105 98.2C570.702 98.2 571.197 97.9947 571.589 97.584C571.999 97.192 572.447 96.4173 572.933 95.26L573.409 94.168L567.277 79.468H570.553L574.865 90.612L578.925 79.468ZM582.751 86.72C582.751 85.2453 583.078 83.9293 583.731 82.772C584.384 81.6147 585.252 80.7187 586.335 80.084C587.436 79.4493 588.622 79.132 589.891 79.132C591.142 79.132 592.308 79.4493 593.391 80.084C594.474 80.7187 595.342 81.6147 595.995 82.772C596.648 83.9293 596.975 85.2453 596.975 86.72C596.975 88.1947 596.648 89.5107 595.995 90.668C595.342 91.8253 594.474 92.7213 593.391 93.356C592.308 93.9907 591.142 94.308 589.891 94.308C588.622 94.308 587.436 93.9907 586.335 93.356C585.252 92.7213 584.384 91.8253 583.731 90.668C583.078 89.5107 582.751 88.1947 582.751 86.72ZM585.775 86.72C585.775 88.2507 586.158 89.464 586.923 90.36C587.707 91.256 588.687 91.704 589.863 91.704C591.058 91.704 592.038 91.256 592.803 90.36C593.568 89.464 593.951 88.2507 593.951 86.72C593.951 85.1893 593.559 83.976 592.775 83.08C592.01 82.184 591.039 81.736 589.863 81.736C588.687 81.736 587.707 82.184 586.923 83.08C586.158 83.976 585.775 85.1893 585.775 86.72ZM609.708 79.468H612.592V94H610.044C610.007 93.0667 609.941 92.2827 609.848 91.648C609.381 92.544 608.737 93.216 607.916 93.664C607.095 94.0933 606.18 94.308 605.172 94.308C603.604 94.308 602.353 93.7947 601.42 92.768C600.487 91.7413 600.02 90.2573 600.02 88.316V79.468H602.876V87.476C602.876 88.8013 603.128 89.8373 603.632 90.584C604.136 91.312 604.901 91.676 605.928 91.676C606.973 91.676 607.86 91.3027 608.588 90.556C609.335 89.8093 609.708 88.7547 609.708 87.392V79.468ZM623.34 79.132C623.825 79.132 624.273 79.1973 624.684 79.328C625.113 79.4587 625.449 79.636 625.692 79.86L624.6 82.128C624.171 81.8667 623.695 81.736 623.172 81.736C622.108 81.736 621.24 82.1747 620.568 83.052C619.915 83.9293 619.588 85.18 619.588 86.804V94H616.704V79.468H619.252C619.289 80.364 619.345 81.148 619.42 81.82C619.849 80.924 620.391 80.252 621.044 79.804C621.716 79.356 622.481 79.132 623.34 79.132ZM641.292 74.988C640.545 74.988 639.976 75.24 639.584 75.744C639.211 76.248 639.024 77.116 639.024 78.348V79.468H642.804V81.904H639.024V94H636.14V81.904H633.62V79.468H636.14V78.264C636.14 76.248 636.607 74.764 637.54 73.812C638.473 72.8413 639.668 72.356 641.124 72.356C641.796 72.356 642.403 72.4493 642.944 72.636C643.485 72.8227 643.915 73.0653 644.232 73.364L643.112 75.548C642.571 75.1747 641.964 74.988 641.292 74.988ZM650.226 79.132C651.962 79.132 653.362 79.6453 654.426 80.672C655.509 81.6987 656.05 83.1733 656.05 85.096V94H653.558C653.521 93.16 653.474 92.5627 653.418 92.208C652.522 93.608 651.085 94.308 649.106 94.308C648.135 94.308 647.239 94.1307 646.418 93.776C645.615 93.4213 644.971 92.908 644.486 92.236C644.001 91.564 643.758 90.752 643.758 89.8C643.758 88.3627 644.346 87.224 645.522 86.384C646.698 85.544 648.201 85.124 650.03 85.124C651.057 85.124 652.111 85.264 653.194 85.544V85.488C653.194 84.1627 652.933 83.192 652.41 82.576C651.887 81.9413 651.103 81.624 650.058 81.624C649.218 81.624 648.509 81.8107 647.93 82.184C647.37 82.5387 646.894 83.0613 646.502 83.752L644.374 82.52C644.841 81.4933 645.597 80.672 646.642 80.056C647.687 79.44 648.882 79.132 650.226 79.132ZM653.194 87.728C652.074 87.448 651.094 87.308 650.254 87.308C649.134 87.308 648.266 87.5227 647.65 87.952C647.034 88.3813 646.726 88.9787 646.726 89.744C646.726 90.4347 646.978 90.9853 647.482 91.396C647.986 91.788 648.649 91.984 649.47 91.984C650.497 91.984 651.374 91.6947 652.102 91.116C652.83 90.5187 653.194 89.6973 653.194 88.652V87.728ZM660.98 79.468L665.208 90.248L669.184 79.468H672.18L666.216 94H663.892L657.732 79.468H660.98ZM673.013 86.72C673.013 85.2453 673.339 83.9293 673.993 82.772C674.646 81.6147 675.514 80.7187 676.597 80.084C677.698 79.4493 678.883 79.132 680.153 79.132C681.403 79.132 682.57 79.4493 683.653 80.084C684.735 80.7187 685.603 81.6147 686.257 82.772C686.91 83.9293 687.237 85.2453 687.237 86.72C687.237 88.1947 686.91 89.5107 686.257 90.668C685.603 91.8253 684.735 92.7213 683.653 93.356C682.57 93.9907 681.403 94.308 680.153 94.308C678.883 94.308 677.698 93.9907 676.597 93.356C675.514 92.7213 674.646 91.8253 673.993 90.668C673.339 89.5107 673.013 88.1947 673.013 86.72ZM676.037 86.72C676.037 88.2507 676.419 89.464 677.185 90.36C677.969 91.256 678.949 91.704 680.125 91.704C681.319 91.704 682.299 91.256 683.065 90.36C683.83 89.464 684.213 88.2507 684.213 86.72C684.213 85.1893 683.821 83.976 683.037 83.08C682.271 82.184 681.301 81.736 680.125 81.736C678.949 81.736 677.969 82.184 677.185 83.08C676.419 83.976 676.037 85.1893 676.037 86.72ZM699.97 79.468H702.854V94H700.306C700.268 93.0667 700.203 92.2827 700.11 91.648C699.643 92.544 698.999 93.216 698.178 93.664C697.356 94.0933 696.442 94.308 695.434 94.308C693.866 94.308 692.615 93.7947 691.682 92.768C690.748 91.7413 690.282 90.2573 690.282 88.316V79.468H693.138V87.476C693.138 88.8013 693.39 89.8373 693.894 90.584C694.398 91.312 695.163 91.676 696.19 91.676C697.235 91.676 698.122 91.3027 698.85 90.556C699.596 89.8093 699.97 88.7547 699.97 87.392V79.468ZM713.602 79.132C714.087 79.132 714.535 79.1973 714.946 79.328C715.375 79.4587 715.711 79.636 715.954 79.86L714.862 82.128C714.433 81.8667 713.957 81.736 713.434 81.736C712.37 81.736 711.502 82.1747 710.83 83.052C710.177 83.9293 709.85 85.18 709.85 86.804V94H706.966V79.468H709.514C709.551 80.364 709.607 81.148 709.682 81.82C710.111 80.924 710.653 80.252 711.306 79.804C711.978 79.356 712.743 79.132 713.602 79.132ZM719.359 77.116C718.873 77.116 718.453 76.9293 718.099 76.556C717.744 76.1827 717.567 75.744 717.567 75.24C717.567 74.736 717.744 74.3067 718.099 73.952C718.453 73.5787 718.873 73.392 719.359 73.392C719.881 73.392 720.32 73.5787 720.675 73.952C721.029 74.3067 721.207 74.736 721.207 75.24C721.207 75.744 721.02 76.1827 720.647 76.556C720.292 76.9293 719.863 77.116 719.359 77.116ZM720.815 94H717.931V79.468H720.815V94ZM733.555 93.412C732.733 94.0093 731.641 94.308 730.279 94.308C728.897 94.308 727.768 93.9253 726.891 93.16C726.032 92.3947 725.603 91.032 725.603 89.072V81.932H723.139V79.468H725.603V75.268H728.459V79.468H732.743V81.932H728.459V88.68C728.459 90.696 729.205 91.704 730.699 91.704C731.371 91.704 731.996 91.5267 732.575 91.172L733.555 93.412ZM741.701 79.132C742.97 79.132 744.081 79.4307 745.033 80.028C745.985 80.6067 746.722 81.4093 747.245 82.436C747.767 83.444 748.029 84.5827 748.029 85.852C748.029 86.2813 747.982 86.7947 747.889 87.392H737.697C737.809 88.848 738.257 89.9493 739.041 90.696C739.825 91.424 740.805 91.788 741.981 91.788C743.511 91.788 744.622 91.1533 745.313 89.884L747.469 91.144C747.095 92.152 746.386 92.936 745.341 93.496C744.295 94.0373 743.129 94.308 741.841 94.308C740.515 94.308 739.311 94.0187 738.229 93.44C737.146 92.8427 736.278 91.9653 735.625 90.808C734.99 89.6507 734.673 88.2693 734.673 86.664C734.673 85.096 734.99 83.7427 735.625 82.604C736.278 81.4653 737.137 80.6067 738.201 80.028C739.283 79.4307 740.45 79.132 741.701 79.132ZM741.589 81.652C740.637 81.652 739.806 81.96 739.097 82.576C738.406 83.1733 737.967 84.0507 737.781 85.208H745.005C744.93 84.088 744.585 83.22 743.969 82.604C743.353 81.9693 742.559 81.652 741.589 81.652ZM765.986 79.132C767.106 79.132 768.151 79.44 769.122 80.056C770.111 80.6533 770.905 81.5307 771.502 82.688C772.099 83.8267 772.398 85.1707 772.398 86.72C772.398 88.288 772.099 89.6507 771.502 90.808C770.905 91.9467 770.111 92.8147 769.122 93.412C768.151 94.0093 767.106 94.308 765.986 94.308C765.015 94.308 764.101 94.084 763.242 93.636C762.383 93.188 761.693 92.516 761.17 91.62C761.095 92.348 761.039 93.1413 761.002 94H758.454V72.692H761.338V81.596C761.861 80.7747 762.523 80.1587 763.326 79.748C764.147 79.3373 765.034 79.132 765.986 79.132ZM765.482 91.732C766.658 91.732 767.601 91.2933 768.31 90.416C769.038 89.52 769.402 88.288 769.402 86.72C769.402 85.1707 769.047 83.9667 768.338 83.108C767.629 82.2307 766.677 81.792 765.482 81.792C764.343 81.792 763.363 82.1933 762.542 82.996C761.739 83.7987 761.338 85.04 761.338 86.72C761.338 88.4187 761.739 89.6787 762.542 90.5C763.363 91.3213 764.343 91.732 765.482 91.732ZM778.537 94H775.653V72.692H778.537V94ZM781.786 86.72C781.786 85.2453 782.113 83.9293 782.766 82.772C783.419 81.6147 784.287 80.7187 785.37 80.084C786.471 79.4493 787.657 79.132 788.926 79.132C790.177 79.132 791.343 79.4493 792.426 80.084C793.509 80.7187 794.377 81.6147 795.03 82.772C795.683 83.9293 796.01 85.2453 796.01 86.72C796.01 88.1947 795.683 89.5107 795.03 90.668C794.377 91.8253 793.509 92.7213 792.426 93.356C791.343 93.9907 790.177 94.308 788.926 94.308C787.657 94.308 786.471 93.9907 785.37 93.356C784.287 92.7213 783.419 91.8253 782.766 90.668C782.113 89.5107 781.786 88.1947 781.786 86.72ZM784.81 86.72C784.81 88.2507 785.193 89.464 785.958 90.36C786.742 91.256 787.722 91.704 788.898 91.704C790.093 91.704 791.073 91.256 791.838 90.36C792.603 89.464 792.986 88.2507 792.986 86.72C792.986 85.1893 792.594 83.976 791.81 83.08C791.045 82.184 790.074 81.736 788.898 81.736C787.722 81.736 786.742 82.184 785.958 83.08C785.193 83.976 784.81 85.1893 784.81 86.72ZM805.495 91.704C806.802 91.704 807.847 91.0973 808.631 89.884L810.843 91.172C810.339 92.2173 809.62 93.0013 808.687 93.524C807.772 94.0467 806.718 94.308 805.523 94.308C804.216 94.308 803.022 94 801.939 93.384C800.856 92.768 799.998 91.8907 799.363 90.752C798.728 89.5947 798.411 88.2507 798.411 86.72C798.411 85.1893 798.728 83.8547 799.363 82.716C799.998 81.5587 800.856 80.672 801.939 80.056C803.022 79.44 804.216 79.132 805.523 79.132C806.718 79.132 807.772 79.3933 808.687 79.916C809.62 80.4387 810.339 81.2227 810.843 82.268L808.631 83.556C807.847 82.3613 806.802 81.764 805.495 81.764C804.282 81.764 803.302 82.212 802.555 83.108C801.808 83.9853 801.435 85.1893 801.435 86.72C801.435 88.2693 801.808 89.492 802.555 90.388C803.302 91.2653 804.282 91.704 805.495 91.704ZM820.394 85.432L826.358 94H822.83L818.434 87.616L816.026 90.304V94H813.142V72.692H816.026V86.692L822.298 79.468H825.742L820.394 85.432ZM833.905 91.704C835.212 91.704 836.257 91.0973 837.041 89.884L839.253 91.172C838.749 92.2173 838.031 93.0013 837.097 93.524C836.183 94.0467 835.128 94.308 833.933 94.308C832.627 94.308 831.432 94 830.349 93.384C829.267 92.768 828.408 91.8907 827.773 90.752C827.139 89.5947 826.821 88.2507 826.821 86.72C826.821 85.1893 827.139 83.8547 827.773 82.716C828.408 81.5587 829.267 80.672 830.349 80.056C831.432 79.44 832.627 79.132 833.933 79.132C835.128 79.132 836.183 79.3933 837.097 79.916C838.031 80.4387 838.749 81.2227 839.253 82.268L837.041 83.556C836.257 82.3613 835.212 81.764 833.905 81.764C832.692 81.764 831.712 82.212 830.965 83.108C830.219 83.9853 829.845 85.1893 829.845 86.72C829.845 88.2693 830.219 89.492 830.965 90.388C831.712 91.2653 832.692 91.704 833.905 91.704ZM849 79.132C850.549 79.132 851.79 79.6547 852.724 80.7C853.676 81.7267 854.152 83.2013 854.152 85.124V94H851.268V85.992C851.268 84.648 851.016 83.612 850.512 82.884C850.008 82.156 849.242 81.792 848.216 81.792C847.17 81.792 846.274 82.1653 845.528 82.912C844.8 83.64 844.436 84.6853 844.436 86.048V94H841.552V72.692H844.436V81.568C844.921 80.7653 845.556 80.1587 846.34 79.748C847.142 79.3373 848.029 79.132 849 79.132ZM863.781 79.132C865.517 79.132 866.917 79.6453 867.981 80.672C869.063 81.6987 869.605 83.1733 869.605 85.096V94H867.113C867.075 93.16 867.029 92.5627 866.973 92.208C866.077 93.608 864.639 94.308 862.661 94.308C861.69 94.308 860.794 94.1307 859.973 93.776C859.17 93.4213 858.526 92.908 858.041 92.236C857.555 91.564 857.313 90.752 857.313 89.8C857.313 88.3627 857.901 87.224 859.077 86.384C860.253 85.544 861.755 85.124 863.585 85.124C864.611 85.124 865.666 85.264 866.749 85.544V85.488C866.749 84.1627 866.487 83.192 865.965 82.576C865.442 81.9413 864.658 81.624 863.613 81.624C862.773 81.624 862.063 81.8107 861.485 82.184C860.925 82.5387 860.449 83.0613 860.057 83.752L857.929 82.52C858.395 81.4933 859.151 80.672 860.197 80.056C861.242 79.44 862.437 79.132 863.781 79.132ZM866.749 87.728C865.629 87.448 864.649 87.308 863.809 87.308C862.689 87.308 861.821 87.5227 861.205 87.952C860.589 88.3813 860.281 88.9787 860.281 89.744C860.281 90.4347 860.533 90.9853 861.037 91.396C861.541 91.788 862.203 91.984 863.025 91.984C864.051 91.984 864.929 91.6947 865.657 91.116C866.385 90.5187 866.749 89.6973 866.749 88.652V87.728ZM874.89 77.116C874.405 77.116 873.985 76.9293 873.63 76.556C873.275 76.1827 873.098 75.744 873.098 75.24C873.098 74.736 873.275 74.3067 873.63 73.952C873.985 73.5787 874.405 73.392 874.89 73.392C875.413 73.392 875.851 73.5787 876.206 73.952C876.561 74.3067 876.738 74.736 876.738 75.24C876.738 75.744 876.551 76.1827 876.178 76.556C875.823 76.9293 875.394 77.116 874.89 77.116ZM876.346 94H873.462V79.468H876.346V94ZM887.91 79.132C889.478 79.132 890.729 79.6453 891.662 80.672C892.595 81.6987 893.062 83.1827 893.062 85.124V94H890.178V85.992C890.178 84.648 889.926 83.612 889.422 82.884C888.918 82.156 888.153 81.792 887.126 81.792C886.081 81.792 885.185 82.1653 884.438 82.912C883.71 83.64 883.346 84.6853 883.346 86.048V94H880.462V79.468H883.01C883.047 80.3827 883.103 81.176 883.178 81.848C883.663 80.952 884.307 80.28 885.11 79.832C885.931 79.3653 886.865 79.132 887.91 79.132ZM907.031 89.8C907.031 91.1627 906.508 92.2547 905.463 93.076C904.436 93.8973 903.092 94.308 901.431 94.308C899.956 94.308 898.696 93.9907 897.651 93.356C896.606 92.7213 895.906 91.844 895.551 90.724L897.707 89.464C898.024 90.248 898.5 90.8453 899.135 91.256C899.77 91.648 900.535 91.844 901.431 91.844C902.234 91.844 902.868 91.6853 903.335 91.368C903.82 91.032 904.063 90.5747 904.063 89.996C904.063 89.548 903.914 89.184 903.615 88.904C903.335 88.6053 902.971 88.372 902.523 88.204C902.094 88.036 901.496 87.84 900.731 87.616C899.723 87.336 898.911 87.0653 898.295 86.804C897.698 86.5427 897.175 86.16 896.727 85.656C896.298 85.1333 896.083 84.4427 896.083 83.584C896.083 82.688 896.326 81.904 896.811 81.232C897.315 80.5413 897.978 80.0187 898.799 79.664C899.639 79.3093 900.563 79.132 901.571 79.132C902.896 79.132 904.026 79.4213 904.959 80C905.911 80.5787 906.546 81.3627 906.863 82.352L904.707 83.584C904.427 82.968 904.007 82.492 903.447 82.156C902.906 81.82 902.252 81.652 901.487 81.652C900.759 81.652 900.171 81.8013 899.723 82.1C899.275 82.38 899.051 82.7907 899.051 83.332C899.051 83.7427 899.182 84.0787 899.443 84.34C899.723 84.5827 900.068 84.788 900.479 84.956C900.89 85.1053 901.468 85.2827 902.215 85.488C903.223 85.768 904.044 86.048 904.679 86.328C905.332 86.608 905.883 87.028 906.331 87.588C906.798 88.148 907.031 88.8853 907.031 89.8Z" fill="white"/>
</svg>
